<mxfile host="app.diagrams.net" modified="2024-02-29T11:47:51.997Z" agent="Mozilla/5.0 (Macintosh; Intel Mac OS X 10_15_7) AppleWebKit/537.36 (KHTML, like Gecko) Chrome/122.0.0.0 Safari/537.36" version="23.1.8" etag="Bp6Yh_DALy0n7dfGgTFb" type="github">
  <diagram name="Page-1" id="JFRKJEgqMgph9xW6P5yi">
    <mxGraphModel>
      <root>
        <mxCell id="0" />
        <mxCell id="1" parent="0" />
      </root>
    </mxGraphModel>
  </diagram>
</mxfile>
